<svg width="22" height="22" viewBox="0 0 22 22" fill="none" xmlns="http://www.w3.org/2000/svg">
<g filter="url(#filter0_d_134_39)">
<path d="M18.0486 8.76214L18.0845 7.61938C18.0913 7.40222 18.0373 7.18749 17.9285 6.9994C17.8198 6.8113 17.6607 6.65732 17.4691 6.55482L16.4617 6.01576C16.2586 5.90708 16.0923 5.74074 15.9836 5.5377L15.4446 4.53127C15.3421 4.33969 15.1881 4.18055 15 4.07181C14.8119 3.96307 14.5972 3.90904 14.38 3.91584L13.2373 3.95129C13.0086 3.95821 12.783 3.89756 12.5885 3.7769L12.0412 3.43804L11.616 3.17476C11.4316 3.06052 11.219 3 11.002 3C10.7851 3 10.5725 3.06052 10.3881 3.17476L9.96084 3.43647L9.41346 3.77534C9.21862 3.89609 8.99248 3.95666 8.76337 3.94946L7.62038 3.91401C7.40295 3.9073 7.18797 3.96154 6.99976 4.07062C6.81155 4.1797 6.6576 4.33927 6.55533 4.53127L6.01629 5.53822C5.90761 5.74127 5.74128 5.9076 5.53824 6.01628L4.53079 6.55534C4.33924 6.65785 4.18012 6.81182 4.07139 6.99992C3.96265 7.18801 3.90862 7.40274 3.91538 7.6199L3.95135 8.76266C3.95867 8.99228 3.89811 9.21896 3.77723 9.41432L3.17459 10.3858C3.06046 10.5702 3 10.7828 3 10.9997C3 11.2166 3.06046 11.4291 3.17459 11.6136L3.77827 12.5858C3.8988 12.7813 3.959 13.008 3.95135 13.2375L3.91538 14.38C3.90866 14.5972 3.96271 14.8119 4.07144 15.0001C4.18017 15.1882 4.33926 15.3422 4.53079 15.4448L5.53824 15.9836C5.74128 16.0923 5.90761 16.2586 6.01629 16.4617L6.55507 17.4692C6.65766 17.6607 6.81169 17.8198 6.99982 17.9285C7.18794 18.0373 7.40268 18.0913 7.61986 18.0846L8.76233 18.0486C8.99195 18.0413 9.21862 18.1019 9.41398 18.2227L10.3873 18.8254C10.5717 18.9395 10.7843 19 11.0011 19C11.218 19 11.4306 18.9395 11.615 18.8254L12.588 18.2227C12.7834 18.1019 13.0101 18.0413 13.2397 18.0486L14.3824 18.0846C14.5995 18.0914 14.8143 18.0373 15.0024 17.9286C15.1904 17.8198 15.3444 17.6607 15.4469 17.4692L15.986 16.4617C16.0946 16.2586 16.261 16.0923 16.464 15.9836L17.4715 15.4448C17.663 15.3422 17.8221 15.1882 17.9308 15.0001C18.0395 14.8119 18.0936 14.5972 18.0869 14.38L18.0486 13.2375C18.0411 13.0079 18.1017 12.7812 18.2227 12.5858L18.8253 11.6136C18.9395 11.4292 19 11.2166 19 10.9997C19 10.7828 18.9395 10.5702 18.8253 10.3858L18.2227 9.41276C18.1019 9.21774 18.0413 8.99142 18.0486 8.76214Z" fill="#FFE200"/>
<path d="M7.23523 12.1373L9.44976 14.2941L14.7646 9.11768" stroke="#231815" stroke-width="1.5" stroke-linecap="round" stroke-linejoin="round"/>
</g>
<defs>
<filter id="filter0_d_134_39" x="0" y="0" width="22" height="22" filterUnits="userSpaceOnUse" color-interpolation-filters="sRGB">
<feFlood flood-opacity="0" result="BackgroundImageFix"/>
<feColorMatrix in="SourceAlpha" type="matrix" values="0 0 0 0 0 0 0 0 0 0 0 0 0 0 0 0 0 0 127 0" result="hardAlpha"/>
<feOffset/>
<feGaussianBlur stdDeviation="1.5"/>
<feComposite in2="hardAlpha" operator="out"/>
<feColorMatrix type="matrix" values="0 0 0 0 0 0 0 0 0 0 0 0 0 0 0 0 0 0 0.25 0"/>
<feBlend mode="normal" in2="BackgroundImageFix" result="effect1_dropShadow_134_39"/>
<feBlend mode="normal" in="SourceGraphic" in2="effect1_dropShadow_134_39" result="shape"/>
</filter>
</defs>
</svg>
