<svg width="16" height="16" viewBox="0 0 16 16" fill="none" xmlns="http://www.w3.org/2000/svg">
<path d="M15.0486 5.76214L15.0845 4.61938C15.0913 4.40222 15.0373 4.18749 14.9285 3.9994C14.8198 3.8113 14.6607 3.65732 14.4691 3.55482L13.4617 3.01576C13.2586 2.90708 13.0923 2.74074 12.9836 2.5377L12.4446 1.53127C12.3421 1.33969 12.1881 1.18055 12 1.07181C11.8119 0.963067 11.5972 0.909044 11.38 0.915837L10.2373 0.951287C10.0086 0.958213 9.78295 0.897556 9.58854 0.776902L9.04116 0.438035L8.61602 0.174765C8.43161 0.060524 8.21897 0 8.00204 0C7.78511 0 7.57248 0.060524 7.38806 0.174765L6.96084 0.436473L6.41346 0.775337C6.21862 0.896091 5.99248 0.956662 5.76337 0.949463L4.62038 0.914014C4.40295 0.907295 4.18797 0.961541 3.99976 1.07062C3.81155 1.1797 3.6576 1.33927 3.55533 1.53127L3.01629 2.53822C2.90761 2.74127 2.74128 2.9076 2.53824 3.01628L1.53079 3.55534C1.33924 3.65785 1.18012 3.81182 1.07139 3.99992C0.962651 4.18801 0.908618 4.40274 0.91538 4.6199L0.951351 5.76266C0.958673 5.99228 0.898106 6.21896 0.777231 6.41432L0.174587 7.38583C0.0604589 7.57024 0 7.78282 0 7.99969C0 8.21657 0.0604589 8.42915 0.174587 8.61356L0.778273 9.58585C0.898798 9.78132 0.959001 10.008 0.951351 10.2375L0.91538 11.38C0.90866 11.5972 0.962707 11.8119 1.07144 12.0001C1.18017 12.1882 1.33926 12.3422 1.53079 12.4448L2.53824 12.9836C2.74128 13.0923 2.90761 13.2586 3.01629 13.4617L3.55507 14.4692C3.65766 14.6607 3.81169 14.8198 3.99982 14.9285C4.18794 15.0373 4.40268 15.0913 4.61986 15.0846L5.76233 15.0486C5.99195 15.0413 6.21862 15.1019 6.41398 15.2227L7.38728 15.8254C7.57169 15.9395 7.78426 16 8.00113 16C8.218 16 8.43057 15.9395 8.61498 15.8254L9.58802 15.2227C9.78338 15.1019 10.0101 15.0413 10.2397 15.0486L11.3824 15.0846C11.5995 15.0914 11.8143 15.0373 12.0024 14.9286C12.1904 14.8198 12.3444 14.6607 12.4469 14.4692L12.986 13.4617C13.0946 13.2586 13.261 13.0923 13.464 12.9836L14.4715 12.4448C14.663 12.3422 14.8221 12.1882 14.9308 12.0001C15.0395 11.8119 15.0936 11.5972 15.0869 11.38L15.0486 10.2375C15.0411 10.0079 15.1017 9.78116 15.2227 9.58585L15.8253 8.61356C15.9395 8.42917 16 8.21658 16 7.99969C16 7.78281 15.9395 7.57022 15.8253 7.38583L15.2227 6.41276C15.1019 6.21774 15.0413 5.99142 15.0486 5.76214Z" fill="#2898FF"/>
<path d="M4.23535 9.13728L6.44988 11.2941L11.7648 6.11768" stroke="white" stroke-width="1.5" stroke-linecap="round" stroke-linejoin="round"/>
</svg>
