<svg width="21" height="23" viewBox="0 0 21 23" fill="none" xmlns="http://www.w3.org/2000/svg">
<path d="M19.2607 15.5276L17.2808 13.5367V8.63101C17.3072 6.80932 16.6735 5.03962 15.4969 3.64868C14.3202 2.25773 12.6801 1.33947 10.8792 1.06346C9.83408 0.925825 8.7716 1.01266 7.76267 1.31818C6.75375 1.6237 5.82158 2.14087 5.02837 2.83519C4.23516 3.52951 3.59914 4.38502 3.16275 5.34462C2.72637 6.30422 2.49965 7.34585 2.49772 8.40002V13.5367L0.517844 15.5276C0.269156 15.7804 0.100511 16.101 0.0329936 16.4491C-0.0345239 16.7973 0.00208109 17.1576 0.138232 17.4851C0.274384 17.8125 0.50404 18.0926 0.798493 18.2903C1.09295 18.4879 1.43913 18.5944 1.79377 18.5964H5.48954V18.9704C5.54092 20.087 6.03286 21.1378 6.85756 21.8924C7.68226 22.647 8.77246 23.0439 9.88928 22.9961C11.0061 23.0439 12.0963 22.647 12.921 21.8924C13.7457 21.1378 14.2376 20.087 14.289 18.9704V18.5964H17.9848C18.3394 18.5944 18.6856 18.4879 18.9801 18.2903C19.2745 18.0926 19.5042 17.8125 19.6403 17.4851C19.7765 17.1576 19.8131 16.7973 19.7456 16.4491C19.678 16.101 19.5094 15.7804 19.2607 15.5276V15.5276ZM12.0891 18.9704C12.0281 19.4995 11.7654 19.9846 11.3556 20.3247C10.9458 20.6649 10.4205 20.8338 9.88928 20.7963C9.35803 20.8338 8.83279 20.6649 8.42299 20.3247C8.01318 19.9846 7.75041 19.4995 7.68941 18.9704V18.5964H12.0891V18.9704ZM2.75071 16.3965L4.04863 15.0986C4.2545 14.894 4.41784 14.6506 4.52922 14.3825C4.6406 14.1145 4.69782 13.827 4.69759 13.5367V8.40002C4.69819 7.65801 4.8575 6.92471 5.16484 6.24933C5.47217 5.57396 5.92041 4.97213 6.47948 4.48426C7.03101 3.98454 7.68454 3.61063 8.39484 3.38843C9.10514 3.16622 9.85525 3.10102 10.5932 3.19733C11.8653 3.40388 13.0199 4.06299 13.8445 5.05334C14.6691 6.04369 15.1082 7.29859 15.081 8.58701V13.5367C15.0793 13.8262 15.1348 14.1132 15.2443 14.3813C15.3537 14.6493 15.515 14.8931 15.7189 15.0986L17.0278 16.3965H2.75071Z" fill="white"/>
<circle cx="16.499" cy="4.2998" r="3.7998" fill="#FF2F3B" stroke="#17191D"/>
</svg>
