<svg width="24" height="30" viewBox="0 0 24 30" fill="none" xmlns="http://www.w3.org/2000/svg">
<g clip-path="url(#clip0_142_46)">
<path d="M4.93196 15.8902C5.32835 15.8902 5.64969 15.5612 5.64969 15.1553C5.64969 14.7494 5.32835 14.4204 4.93196 14.4204C4.53557 14.4204 4.21423 14.7494 4.21423 15.1553C4.21423 15.5612 4.53557 15.8902 4.93196 15.8902Z" fill="#FF2F54"/>
<path d="M6.17716 12.4687C6.38375 12.4708 6.58628 12.4106 6.75904 12.2958C6.9318 12.1809 7.067 12.0166 7.14745 11.8238C7.2279 11.6309 7.24999 11.4181 7.2109 11.2125C7.17182 11.0069 7.07332 10.8177 6.92793 10.6689C6.78253 10.5201 6.59679 10.4185 6.3943 10.377C6.19181 10.3354 5.98171 10.3558 5.79066 10.4355C5.59962 10.5152 5.43626 10.6507 5.32133 10.8247C5.2064 10.9987 5.14508 11.2034 5.14517 11.4128C5.14414 11.5509 5.17005 11.6879 5.22143 11.8158C5.2728 11.9438 5.34862 12.0602 5.44453 12.1583C5.54044 12.2564 5.65454 12.3344 5.78027 12.3876C5.906 12.4409 6.04088 12.4685 6.17716 12.4687Z" fill="white"/>
<path d="M3.55289 9.94308C3.8925 9.93639 4.21597 9.79495 4.45381 9.54915C4.69165 9.30335 4.82488 8.9728 4.82488 8.62852C4.82488 8.28424 4.69165 7.95369 4.45381 7.7079C4.21597 7.4621 3.8925 7.32066 3.55289 7.31396C2.84643 7.31396 2.27431 7.91025 2.27431 8.63424C2.27341 8.80529 2.30576 8.97484 2.36954 9.1332C2.43332 9.29157 2.52727 9.43565 2.64601 9.5572C2.76475 9.67875 2.90596 9.77539 3.06156 9.84161C3.21717 9.90782 3.38413 9.9423 3.55289 9.94308Z" fill="#24BDFF"/>
<path d="M18.3041 6.6861C19.2012 6.6861 19.9415 5.92832 19.9415 5.01005C19.9415 4.09177 19.2012 3.3335 18.3041 3.3335C17.4069 3.3335 16.6666 4.09127 16.6666 5.01005C16.6666 5.92882 17.4069 6.6861 18.3041 6.6861Z" fill="white"/>
<path d="M6.58067 7.53218L8.08379 7.48646L8.93585 8.72872C8.9921 8.80755 9.07028 8.86759 9.16038 8.90114C9.26185 8.9301 9.37049 8.9174 9.46279 8.86579C9.55509 8.81418 9.62363 8.7278 9.65358 8.62536L10.0688 7.14459L11.5043 6.68545C11.5879 6.65757 11.6618 6.60581 11.717 6.53638C11.7747 6.44644 11.7953 6.33717 11.7744 6.23201C11.7535 6.12685 11.6928 6.03418 11.6053 5.97389L10.3713 5.10133L10.3826 3.56093C10.3825 3.47063 10.3552 3.38253 10.3041 3.3085C10.2384 3.22454 10.1427 3.1702 10.0377 3.15727C9.93273 3.14434 9.82695 3.17386 9.74329 3.23943L8.56669 4.18355L7.14495 3.68963C7.05626 3.66491 6.96215 3.6689 6.87581 3.70106C6.67382 3.77013 6.57332 3.9992 6.64048 4.21784L7.15623 5.66432L6.25906 6.89266C6.22994 6.92734 6.20798 6.9676 6.19451 7.01105C6.18103 7.0545 6.17631 7.10025 6.18062 7.14558C6.18014 7.1981 6.1903 7.25017 6.21048 7.29855C6.23065 7.34693 6.26041 7.39059 6.29792 7.42683C6.33542 7.46308 6.37987 7.49113 6.42851 7.50925C6.47715 7.52737 6.52894 7.53517 6.58067 7.53218Z" fill="#FF2F54"/>
<path d="M3.7436 12.2278C4.09119 10.4598 1.64631 10.0578 1.27617 11.5962C-0.652487 18.1861 -0.562776 23.5134 2.71162 29.7829C0.648148 22.1475 2.77879 16.7973 3.7436 12.2278Z" fill="#49FB5B"/>
<path d="M11.8632 2.23977L12.7824 2.59556L12.9957 3.57148C13.0099 3.63268 13.041 3.68852 13.0854 3.73247C13.1406 3.77582 13.2105 3.79529 13.2798 3.78664C13.3492 3.77798 13.4123 3.7419 13.4555 3.68626L14.0723 2.90562L15.0479 2.99755C15.1063 3.00856 15.1668 2.99628 15.2165 2.96327C15.2714 2.92188 15.3089 2.86098 15.3213 2.79278C15.3338 2.72458 15.3203 2.65413 15.2837 2.59556L14.7567 1.74635L15.1376 0.827577C15.1636 0.774038 15.1677 0.712212 15.1489 0.655648C15.1413 0.621707 15.1272 0.589642 15.1072 0.561341C15.0872 0.533041 15.0619 0.50908 15.0326 0.490876C15.0034 0.472672 14.9708 0.460593 14.9369 0.455352C14.903 0.450112 14.8684 0.451817 14.8351 0.460366L13.8816 0.724221L13.1526 0.0583701C13.1145 0.0286996 13.0694 0.0097258 13.0218 0.00335718C12.9742 -0.00301144 12.9258 0.00345202 12.8814 0.0220972C12.8371 0.0407423 12.7984 0.0709084 12.7692 0.109556C12.74 0.148203 12.7214 0.193964 12.7152 0.242225L12.6706 1.25243L11.8294 1.76921C11.8029 1.78106 11.7793 1.79843 11.7599 1.82018C11.7406 1.84193 11.726 1.86756 11.7171 1.89542C11.7041 1.92773 11.6977 1.96232 11.698 1.99719C11.6984 2.03206 11.7055 2.06651 11.7191 2.09855C11.7327 2.13058 11.7525 2.15956 11.7772 2.18381C11.8019 2.20805 11.8311 2.22707 11.8632 2.23977Z" fill="#FFF13A"/>
<path d="M19.6238 14.6387L20.218 13.215C20.2535 13.1319 20.2614 13.0393 20.2405 12.9512C20.1842 12.7445 19.9601 12.6063 19.7581 12.6754L18.3001 13.066L17.1789 12.0558C17.1084 11.9986 17.0235 11.9628 16.9338 11.9524C16.8277 11.9485 16.7245 11.9874 16.6467 12.0605C16.5688 12.1336 16.5228 12.235 16.5185 12.3425L16.4401 13.8695L15.1503 14.6615C15.075 14.7067 15.016 14.7751 14.9821 14.8568C14.9632 14.9072 14.9544 14.9608 14.956 15.0147C14.9577 15.0685 14.9698 15.1215 14.9917 15.1706C15.0136 15.2197 15.0449 15.2639 15.0837 15.3007C15.1225 15.3375 15.1681 15.3661 15.2179 15.385L16.6195 15.9361L16.9446 17.4054C16.9495 17.4544 16.964 17.502 16.9871 17.5453C17.0102 17.5886 17.0416 17.6269 17.0794 17.6579C17.1615 17.7249 17.2664 17.7565 17.3714 17.7458C17.4763 17.7351 17.5729 17.683 17.6402 17.6007L18.582 16.3952L20.0739 16.5443C20.1653 16.556 20.2577 16.5314 20.3317 16.4757C20.3751 16.4473 20.4125 16.4104 20.4416 16.3671C20.4708 16.3239 20.4911 16.2752 20.5015 16.2239C20.5119 16.1726 20.5122 16.1198 20.5022 16.0684C20.4922 16.017 20.4723 15.9681 20.4435 15.9247L19.6238 14.6387Z" fill="#24BDFF"/>
<path d="M16.8647 19.3023C16.6682 19.3014 16.4759 19.3597 16.3122 19.4698C16.1484 19.58 16.0207 19.7369 15.9452 19.9208C15.8696 20.1046 15.8497 20.3071 15.888 20.5025C15.9262 20.6978 16.0208 20.8773 16.1599 21.018C16.2989 21.1587 16.4761 21.2544 16.6689 21.2928C16.8617 21.3313 17.0614 21.3108 17.2427 21.234C17.424 21.1571 17.5787 21.0274 17.6871 20.8613C17.7955 20.6952 17.8527 20.5002 17.8516 20.301C17.8522 20.1696 17.8271 20.0393 17.7778 19.9177C17.7284 19.7961 17.6557 19.6857 17.5639 19.5928C17.4721 19.4999 17.363 19.4264 17.243 19.3765C17.123 19.3267 16.9944 19.3014 16.8647 19.3023Z" fill="#49FB5B"/>
<path d="M23.4032 10.4136L22.8639 9.57578L23.2449 8.64607C23.2709 8.59235 23.2749 8.53038 23.2561 8.47364C23.2482 8.44024 23.2337 8.40881 23.2134 8.38128C23.1931 8.35375 23.1675 8.33068 23.1382 8.31348C23.1088 8.29629 23.0763 8.28532 23.0427 8.28125C23.009 8.27718 22.9749 8.28008 22.9424 8.28979L22.0001 8.54222L21.2598 7.8878C21.2395 7.86633 21.2152 7.84919 21.1882 7.83742C21.1613 7.82564 21.1323 7.81945 21.1029 7.81923C21.0686 7.81633 21.034 7.82071 21.0014 7.8321C20.9688 7.84349 20.9388 7.86164 20.9135 7.88538C20.8882 7.90912 20.8681 7.93794 20.8543 7.97001C20.8406 8.00208 20.8336 8.03669 20.8338 8.07165L20.7779 9.07042L19.9366 9.5872C19.9088 9.5999 19.8842 9.61892 19.8647 9.64278C19.8452 9.66665 19.8314 9.69472 19.8244 9.72485C19.8111 9.75635 19.8044 9.7903 19.8047 9.82455C19.805 9.85881 19.8123 9.89263 19.8261 9.9239C19.8399 9.95516 19.8599 9.9832 19.885 10.0062C19.91 10.0293 19.9394 10.0468 19.9714 10.0578L20.8907 10.4255L21.1039 11.3895C21.118 11.4507 21.1492 11.5066 21.1936 11.5505C21.2202 11.5729 21.2508 11.5897 21.2837 11.6001C21.3167 11.6105 21.3513 11.6142 21.3857 11.611C21.4201 11.6079 21.4535 11.5978 21.4841 11.5816C21.5146 11.5653 21.5417 11.5431 21.5638 11.5162L22.1805 10.7211L23.1561 10.8245C23.2154 10.8256 23.2739 10.8097 23.3248 10.7788C23.3787 10.7374 23.4162 10.6779 23.4306 10.6109C23.445 10.5439 23.4353 10.4739 23.4032 10.4136Z" fill="#49FB5B"/>
<path d="M13.781 7.45227C7.09739 13.904 3.63277 20.2758 3.33862 30.0002C5.98599 19.5066 12.0862 14.6618 16.2813 9.93181C17.8628 8.08333 15.2385 5.8905 13.781 7.45227Z" fill="#FFF13A"/>
<path d="M14.1061 20.7582C9.55262 22.6752 6.62581 25.1806 4.66333 29.9772C7.94802 25.2566 11.9078 24.0303 14.891 22.4918C16.0239 21.8717 15.1268 20.2642 14.1061 20.7582Z" fill="#FF2F54"/>
<path d="M11.9749 18.2439C11.9769 18.4504 12.0392 18.6517 12.154 18.8224C12.2687 18.9931 12.4307 19.1255 12.6196 19.203C12.8085 19.2805 13.0158 19.2996 13.2153 19.2579C13.4149 19.2162 13.5978 19.1155 13.741 18.9685C13.8842 18.8216 13.9813 18.635 14.02 18.4322C14.0587 18.2294 14.0373 18.0196 13.9586 17.8291C13.8798 17.6386 13.7471 17.4761 13.5773 17.3619C13.4075 17.2477 13.2082 17.187 13.0044 17.1875C12.8683 17.1882 12.7337 17.216 12.6082 17.2695C12.4828 17.323 12.369 17.401 12.2733 17.4992C12.1777 17.5973 12.1021 17.7136 12.0509 17.8414C11.9997 17.9692 11.9738 18.106 11.9749 18.2439Z" fill="#FF2F54"/>
<path d="M9.84428 20.2298C9.8468 20.3723 9.89086 20.5108 9.97091 20.628C10.051 20.7451 10.1634 20.8356 10.2941 20.8881C10.4248 20.9406 10.5679 20.9527 10.7054 20.9229C10.8429 20.8931 10.9686 20.8228 11.0667 20.7207C11.1648 20.6187 11.2309 20.4894 11.2567 20.3494C11.2825 20.2093 11.2669 20.0646 11.2117 19.9336C11.1565 19.8025 11.0643 19.6909 10.9467 19.6128C10.8291 19.5348 10.6913 19.4937 10.5507 19.4949C10.361 19.4978 10.1802 19.5767 10.0478 19.7145C9.91535 19.8522 9.84219 20.0375 9.84428 20.2298Z" fill="white"/>
</g>
<defs>
<clipPath id="clip0_142_46">
<rect width="23.4375" height="30" fill="white"/>
</clipPath>
</defs>
</svg>
