<svg width="21" height="26" viewBox="0 0 21 26" fill="none" xmlns="http://www.w3.org/2000/svg">
<path d="M20.5796 12.6746C19.2504 9.50656 17.8755 7.78841 17.3833 6.41548C17.0716 5.54558 17.069 4.58509 17.3758 3.71326C16.2845 3.48709 15.4729 4.56718 14.8602 5.66394C14.4817 6.34168 13.9865 10.4533 13.2146 11.4628C13.1842 11.5022 13.1446 11.5324 13.0997 11.5504C13.0549 11.5685 13.0063 11.5738 12.959 11.5658C12.9116 11.5577 12.867 11.5367 12.8297 11.5047C12.7924 11.4727 12.7637 11.4309 12.7463 11.3834C10.0991 3.96881 11.5188 0 11.5188 0C7.35381 1.63006 6.3178 5.84726 6.11958 6.5004C5.73734 7.76143 5.89517 12.5572 5.89517 12.5572C5.88988 12.6278 5.86277 12.6947 5.81806 12.7473C5.77334 12.8 5.7135 12.8355 5.64781 12.8485C5.58212 12.8614 5.51425 12.851 5.4547 12.8188C5.39516 12.7867 5.34727 12.7346 5.31844 12.6707C5.31844 12.6707 4.22184 9.86765 4.09393 8.33203C3.98921 7.07179 3.98023 7.33368 3.98023 7.33368C2.09446 9.14309 0 13.2405 0 15.9919C0 21.5193 4.70132 26 10.5 26C16.2987 26 21 21.5193 21 15.9919C21 14.8094 21 13.6761 20.5796 12.6746Z" fill="#D9D9D9"/>
</svg>
