<svg width="28" height="27" viewBox="0 0 28 27" fill="none" xmlns="http://www.w3.org/2000/svg">
<path d="M16.6836 7.0615C16.6836 8.26036 16.3282 9.43229 15.6621 10.4291C14.9961 11.4259 14.0493 12.2029 12.9417 12.6617C11.8341 13.1205 10.6153 13.2405 9.43945 13.0066C8.26363 12.7727 7.18359 12.1954 6.33587 11.3477C5.48815 10.5 4.91086 9.41993 4.67697 8.2441C4.44308 7.06828 4.56332 5.84944 5.0221 4.74184C5.48088 3.63424 6.25776 2.6876 7.25458 2.02155C8.25139 1.3555 9.42319 1 10.6221 1C12.2262 1.0111 13.7617 1.65325 14.8961 2.78761C16.0304 3.92197 16.6725 5.45731 16.6836 7.0615V7.0615Z" stroke="white" stroke-width="2" stroke-miterlimit="10"/>
<path d="M1 22.9571C1 20.4051 2.01371 17.9577 3.81821 16.1532C5.62272 14.3487 8.07003 13.335 10.622 13.335C12.8716 13.3355 15.0486 14.1312 16.7683 15.5815" stroke="white" stroke-width="2" stroke-miterlimit="10"/>
<path d="M24.2716 25.5005L24.0173 23.9746L23.763 22.4061V21.7279L25.5432 19.9477L26.5181 19.0575C26.7724 18.7608 26.5181 18.5064 26.5181 18.4216L24.9922 18.2097L23.4238 17.9978H22.7457L22.4065 17.3619L22.0249 16.5566L21.0501 14.5644C21.0501 14.2253 20.5837 14.2253 20.4142 14.5644L18.7612 17.9978H18.0404L16.4721 18.2097L14.9462 18.4216C14.5647 18.4216 14.4799 18.7608 14.7343 19.0575L17.4894 21.7279V22.4061L17.235 23.9746L16.9807 25.5005C16.9807 25.882 16.9807 26.0516 17.4894 25.882L20.2447 24.3984L20.8806 24.0593L21.5163 24.3984L22.9152 25.119L24.2716 25.882C24.1021 26.1363 24.3564 25.9668 24.2716 25.5005Z" stroke="white" stroke-width="2" stroke-miterlimit="10"/>
</svg>
