<svg width="33" height="32" viewBox="0 0 33 32" fill="none" xmlns="http://www.w3.org/2000/svg">
<path d="M15.115 1.32989C15.6274 0.0979497 17.3726 0.0979537 17.885 1.32989L21.306 9.55494C21.522 10.0743 22.0104 10.4291 22.5711 10.4741L31.4507 11.186C32.7807 11.2926 33.32 12.9524 32.3067 13.8204L25.5413 19.6156C25.1141 19.9815 24.9276 20.5557 25.0581 21.1028L27.125 29.7678C27.4346 31.0657 26.0227 32.0914 24.8841 31.396L17.2819 26.7526C16.8019 26.4594 16.1981 26.4594 15.7181 26.7526L8.11592 31.396C6.97727 32.0914 5.5654 31.0657 5.87498 29.7678L7.9419 21.1028C8.07241 20.5557 7.88585 19.9815 7.45867 19.6156L0.693328 13.8204C-0.319978 12.9524 0.219315 11.2926 1.5493 11.186L10.4289 10.4741C10.9896 10.4291 11.478 10.0743 11.694 9.55494L15.115 1.32989Z" fill="white"/>
</svg>
