<svg width="23" height="23" viewBox="0 0 23 23" fill="none" xmlns="http://www.w3.org/2000/svg">
<path d="M10.5767 1.21993C10.9183 0.398635 12.0817 0.398636 12.4233 1.21993L14.8362 7.02126C14.9802 7.3675 15.3058 7.60407 15.6796 7.63403L21.9427 8.13614C22.8293 8.20722 23.1888 9.31373 22.5133 9.8924L17.7415 13.9799C17.4568 14.2239 17.3324 14.6066 17.4194 14.9714L18.8772 21.0831C19.0836 21.9483 18.1424 22.6321 17.3833 22.1685L12.0213 18.8934C11.7012 18.6979 11.2988 18.6979 10.9787 18.8934L5.61672 22.1685C4.85762 22.6321 3.91637 21.9483 4.12276 21.0831L5.58061 14.9714C5.66762 14.6066 5.54325 14.2239 5.25846 13.9799L0.486692 9.8924C-0.188845 9.31373 0.170682 8.20722 1.05734 8.13614L7.32036 7.63403C7.69415 7.60407 8.01976 7.3675 8.16377 7.02126L10.5767 1.21993Z" fill="white"/>
</svg>
