<svg width="32" height="29" viewBox="0 0 32 29" fill="none" xmlns="http://www.w3.org/2000/svg">
<path d="M23.6182 0.0122893C21.8973 -0.0720389 20.1845 0.296938 18.6527 1.08204C17.7412 1.61016 16.0135 2.85604 16.0135 4.02062C16.0135 2.85604 14.2858 1.61016 13.3607 1.08204C11.8295 0.295109 10.1162 -0.0739765 8.39511 0.0122893C7.27947 0.0139103 6.17533 0.236564 5.147 0.667216C4.11867 1.09787 3.18672 1.7279 2.40548 2.52067C1.62424 3.31343 1.00932 4.25307 0.596558 5.28477C0.183799 6.31646 -0.0185265 7.41957 0.00133228 8.52989C0.00133228 14.3528 3.1167 18.1445 6.42252 21.4621C7.91898 22.9517 13.4151 27.4475 14.585 28.3954L15.0476 28.7068C15.3281 28.8978 15.66 29 15.9999 29C16.3397 29 16.6716 28.8978 16.9522 28.7068L17.4147 28.3954C18.5847 27.4475 24.0808 22.9788 25.5772 21.4621C28.883 18.1445 32.0392 14.3528 31.9984 8.52989C32.0201 7.42022 31.8195 6.31739 31.4082 5.28576C30.997 4.25413 30.3833 3.31437 29.6032 2.52141C28.823 1.72845 27.892 1.09819 26.8644 0.667382C25.8368 0.236569 24.7332 0.0138782 23.6182 0.0122893V0.0122893Z" fill="white"/>
</svg>
