<svg width="20" height="18" viewBox="0 0 20 18" fill="none" xmlns="http://www.w3.org/2000/svg">
<path d="M10.8101 1.87031C10.5613 2.01168 10.1991 2.24811 9.88117 2.54028C9.56167 2.24746 9.19661 2.01033 8.94239 1.86797L8.92814 1.85999L8.91356 1.85264C8.04876 1.41671 7.08292 1.21136 6.11291 1.25599C5.47288 1.25921 4.83931 1.38559 4.24832 1.62835C3.65176 1.8734 3.10992 2.23238 2.65487 2.6853C2.19978 3.13825 1.84059 3.67612 1.59917 4.26801C1.3586 4.85778 1.24001 5.48886 1.25066 6.12458C1.25312 9.25144 2.98152 11.268 4.63495 12.8955L4.63714 12.8977C5.40843 13.6507 8.15327 15.8513 8.71196 16.2953L8.73776 16.3158L8.76527 16.334L8.98975 16.4822C8.99036 16.4826 8.99098 16.483 8.99159 16.4834C9.25351 16.6578 9.56129 16.75 9.87493 16.75C10.1885 16.75 10.4964 16.6578 10.7583 16.4834C10.7589 16.483 10.7595 16.4826 10.7601 16.4822L10.9846 16.334L11.0121 16.3158L11.0379 16.2953C11.5913 15.8555 14.3396 13.6656 15.1161 12.8944C16.7645 11.2717 18.5179 9.25297 18.4993 6.12247C18.5105 5.4881 18.3929 4.8582 18.1535 4.26935C17.9129 3.67736 17.5544 3.13928 17.0998 2.68609C16.6453 2.23294 16.1038 1.87374 15.5075 1.62854L15.2256 2.3141L15.5075 1.62854C14.9167 1.38557 14.2832 1.25914 13.6432 1.25599C12.6737 1.21236 11.7086 1.41754 10.8438 1.85227L10.8267 1.86086L10.8101 1.87031Z" stroke="#93948F" stroke-width="1.5"/>
</svg>
