<svg width="47" height="59" viewBox="0 0 47 59" fill="none" xmlns="http://www.w3.org/2000/svg">
<path d="M23.5848 2C25.0243 1.99999 26.4141 2.52691 27.4917 3.48131C28.5694 4.4357 29.2605 5.75158 29.4345 7.18055C30.5684 6.30235 31.9836 5.86781 33.415 5.95839C34.8463 6.04898 36.1955 6.65845 37.2097 7.6726C38.2238 8.68674 38.8333 10.0359 38.9239 11.4673C39.0145 12.8986 38.58 14.3139 37.7018 15.4478C39.1308 15.6217 40.4467 16.3128 41.4012 17.3904C42.3556 18.4681 42.8826 19.8579 42.8826 21.2975C42.8826 22.7371 42.3556 24.1269 41.4012 25.2045C40.4467 26.2822 39.1308 26.9733 37.7018 27.1472C38.6108 28.2761 39.0701 29.7014 38.9913 31.1487C38.9126 32.596 38.3012 33.963 37.2749 34.9865C36.2487 36.0101 34.8801 36.6179 33.4326 36.6929C31.9851 36.7679 30.5611 36.3049 29.4345 35.3928C29.2824 36.8354 28.6016 38.1706 27.5235 39.141C26.4453 40.1114 25.0462 40.6484 23.5956 40.6484C22.1451 40.6484 20.7458 40.1114 19.6677 39.141C18.5896 38.1706 17.9088 36.8354 17.7567 35.3928C16.6302 36.3049 15.2061 36.7679 13.7586 36.6929C12.3111 36.6179 10.9425 36.0101 9.91624 34.9865C8.88999 33.963 8.27862 32.596 8.19983 31.1487C8.12103 29.7014 8.58039 28.2761 9.48944 27.1472C8.06041 26.9733 6.74446 26.2822 5.79 25.2045C4.83554 24.1269 4.30859 22.7371 4.30859 21.2975C4.30859 19.8579 4.83554 18.4681 5.79 17.3904C6.74446 16.3128 8.06041 15.6217 9.48944 15.4478C8.63844 14.3054 8.23006 12.8935 8.33984 11.4732C8.44963 10.053 9.07014 8.72057 10.0866 7.72256C11.103 6.72455 12.4466 6.1285 13.8686 6.04472C15.2906 5.96095 16.6949 6.39512 17.8215 7.26688C17.986 5.83786 18.6713 4.51957 19.7464 3.56391C20.8216 2.60825 22.2111 2.08223 23.6496 2.08636L23.5848 2Z" stroke="white" stroke-width="3" stroke-linecap="round" stroke-linejoin="round"/>
<path d="M23.5848 11.584C25.5197 11.5797 27.4123 12.1496 29.0232 13.2214C30.634 14.2933 31.8907 15.8189 32.6341 17.6053C33.3775 19.3917 33.5742 21.3584 33.1994 23.2566C32.8245 25.1548 31.895 26.8992 30.5283 28.2689C29.1617 29.6385 27.4194 30.572 25.522 30.951C23.6246 31.3301 21.6574 31.1377 19.8694 30.3982C18.0814 29.6588 16.553 28.4055 15.4776 26.797C14.4022 25.1885 13.8281 23.2971 13.8281 21.3623C13.8281 18.7726 14.8554 16.2888 16.6845 14.4556C18.5136 12.6225 20.9952 11.5897 23.5848 11.584V11.584Z" stroke="white" stroke-width="3" stroke-linecap="round" stroke-linejoin="round"/>
<path d="M23.6719 44.3939L16.4839 56.9999L13.0302 46.2503L2 48.6463L9.94348 34.9395" stroke="white" stroke-width="3" stroke-linejoin="round"/>
<path d="M20.6279 39.6235L30.6868 56.9999L34.1189 46.2503L45.1707 48.6463L37.2272 34.9395" stroke="white" stroke-width="3" stroke-linejoin="round"/>
</svg>
