<svg width="29" height="27" viewBox="0 0 29 27" fill="none" xmlns="http://www.w3.org/2000/svg">
<path d="M26.1632 0H2.85528C2.09803 0 1.37171 0.305671 0.836254 0.849806C0.300796 1.39394 0 2.13197 0 2.9015V19.2446C0 20.0141 0.300796 20.7522 0.836254 21.2963C1.37171 21.8404 2.09803 22.1461 2.85528 22.1461H5.71045V26.3306C5.71077 26.4631 5.74966 26.5925 5.82224 26.7026C5.89483 26.8126 5.99791 26.8983 6.11838 26.949C6.23885 26.9997 6.37139 27.013 6.49928 26.9872C6.62717 26.9614 6.74468 26.8978 6.83703 26.8043L11.4209 22.1461H26.1438C26.5187 22.1461 26.8899 22.071 27.2363 21.9252C27.5827 21.7794 27.8976 21.5657 28.1627 21.2963C28.4278 21.0269 28.6381 20.707 28.7816 20.3549C28.9251 20.0029 28.9989 19.6256 28.9989 19.2446V2.98047C29.0093 2.5945 28.9438 2.21027 28.8062 1.85038C28.6685 1.4905 28.4615 1.1622 28.1974 0.884623C27.9333 0.607045 27.6174 0.385793 27.2681 0.233896C26.9188 0.0819984 26.5432 0.0024834 26.1632 0V0ZM7.53624 13.1061C7.15209 13.1061 6.77661 12.9903 6.4572 12.7734C6.13778 12.5565 5.88876 12.2483 5.74175 11.8876C5.59474 11.5269 5.55631 11.1301 5.63126 10.7472C5.7062 10.3643 5.8912 10.0126 6.16284 9.73657C6.43448 9.46053 6.78058 9.27254 7.15735 9.19638C7.53413 9.12022 7.92464 9.15932 8.27955 9.30872C8.63447 9.45811 8.93783 9.71111 9.15125 10.0357C9.36468 10.3603 9.47857 10.7419 9.47857 11.1323C9.47857 11.6558 9.2739 12.1578 8.90965 12.528C8.54539 12.8981 8.05138 13.1061 7.53624 13.1061ZM14.4509 13.1061C14.0668 13.1061 13.6913 12.9903 13.3719 12.7734C13.0525 12.5565 12.8034 12.2483 12.6564 11.8876C12.5094 11.5269 12.471 11.1301 12.5459 10.7472C12.6209 10.3643 12.8059 10.0126 13.0775 9.73657C13.3492 9.46053 13.6953 9.27254 14.072 9.19638C14.4488 9.12022 14.8393 9.15932 15.1942 9.30872C15.5491 9.45811 15.8525 9.71111 16.0659 10.0357C16.2794 10.3603 16.3933 10.7419 16.3933 11.1323C16.3933 11.6558 16.1886 12.1578 15.8243 12.528C15.4601 12.8981 14.9661 13.1061 14.4509 13.1061V13.1061ZM21.385 13.1061C21.0009 13.1061 20.6253 12.9903 20.3059 12.7734C19.9865 12.5565 19.7376 12.2483 19.5906 11.8876C19.4435 11.5269 19.4051 11.1301 19.4801 10.7472C19.555 10.3643 19.74 10.0126 20.0116 9.73657C20.2833 9.46053 20.6294 9.27254 21.0062 9.19638C21.3829 9.12022 21.7734 9.15932 22.1284 9.30872C22.4833 9.45811 22.7866 9.71111 23.0001 10.0357C23.2135 10.3603 23.3274 10.7419 23.3274 11.1323C23.3274 11.6558 23.1227 12.1578 22.7585 12.528C22.3942 12.8981 21.9002 13.1061 21.385 13.1061V13.1061Z" fill="white"/>
</svg>
