<svg width="19" height="18" viewBox="0 0 19 18" fill="none" xmlns="http://www.w3.org/2000/svg">
<path d="M15.7113 1.5459H2.60547C2.17967 1.5459 1.77134 1.71503 1.47025 2.01611C1.16917 2.3172 1.00004 2.72557 1.00004 3.15136V12.1507C0.998597 12.3624 1.03905 12.5724 1.11909 12.7684C1.19913 12.9644 1.31716 13.1427 1.46639 13.293C1.61561 13.4432 1.7931 13.5624 1.9886 13.6438C2.1841 13.7252 2.39371 13.7671 2.60547 13.7671H4.20003V16.0715C4.19787 16.1471 4.21889 16.2216 4.26022 16.285C4.30155 16.3483 4.36119 16.3976 4.43127 16.4261C4.50135 16.4546 4.57849 16.461 4.65231 16.4445C4.72614 16.428 4.79319 16.3893 4.84443 16.3336L7.41095 13.7671H15.7004C15.9122 13.7671 16.1218 13.7252 16.3173 13.6438C16.5128 13.5624 16.6903 13.4432 16.8395 13.293C16.9887 13.1427 17.1067 12.9644 17.1868 12.7684C17.2668 12.5724 17.3073 12.3624 17.3058 12.1507V3.15136C17.3058 2.72745 17.1382 2.32075 16.8395 2.01998C16.5408 1.71921 16.1352 1.54878 15.7113 1.5459V1.5459Z" stroke="#93948F" stroke-width="1.5" stroke-miterlimit="10"/>
<path d="M5.23704 8.80855C5.85228 8.80855 6.35103 8.3098 6.35103 7.69456C6.35103 7.07932 5.85228 6.58057 5.23704 6.58057C4.6218 6.58057 4.12305 7.07932 4.12305 7.69456C4.12305 8.3098 4.6218 8.80855 5.23704 8.80855Z" fill="#93948F"/>
<path d="M9.12535 8.7976C8.90934 8.7976 8.69815 8.73353 8.51855 8.61352C8.33894 8.49351 8.19898 8.32294 8.11632 8.12337C8.03366 7.92381 8.01205 7.70423 8.05419 7.49237C8.09634 7.28052 8.20036 7.08591 8.3531 6.93317C8.50584 6.78043 8.70045 6.67641 8.9123 6.63426C9.12416 6.59212 9.34374 6.61376 9.5433 6.69642C9.74287 6.77909 9.91344 6.91908 10.0335 7.09868C10.1535 7.27828 10.2175 7.48944 10.2175 7.70545C10.2175 7.99511 10.1024 8.27288 9.8976 8.4777C9.69278 8.68252 9.415 8.7976 9.12535 8.7976Z" fill="#93948F"/>
<path d="M13.0242 8.80855C13.6394 8.80855 14.1381 8.3098 14.1381 7.69456C14.1381 7.07932 13.6394 6.58057 13.0242 6.58057C12.4089 6.58057 11.9102 7.07932 11.9102 7.69456C11.9102 8.3098 12.4089 8.80855 13.0242 8.80855Z" fill="#93948F"/>
</svg>
