<svg width="24" height="22" viewBox="0 0 24 22" fill="none" xmlns="http://www.w3.org/2000/svg">
<path d="M21.0001 0.5H2.51454C1.91396 0.5 1.33791 0.742428 0.913236 1.17398C0.488562 1.60554 0.25 2.19088 0.25 2.80119V15.763C0.25 16.3733 0.488562 16.9586 0.913236 17.3902C1.33791 17.8217 1.91396 18.0642 2.51454 18.0642H4.77898V21.3829C4.77923 21.4879 4.81007 21.5906 4.86764 21.6779C4.92521 21.7652 5.00696 21.8332 5.10251 21.8733C5.19806 21.9135 5.30317 21.9241 5.4046 21.9036C5.50603 21.8832 5.59923 21.8327 5.67247 21.7585L9.30795 18.0642H20.9847C21.2821 18.0642 21.5765 18.0046 21.8512 17.889C22.126 17.7733 22.3756 17.6039 22.5859 17.3902C22.7962 17.1765 22.963 16.9228 23.0768 16.6436C23.1906 16.3644 23.2492 16.0652 23.2492 15.763V2.86382C23.2574 2.55771 23.2054 2.25297 23.0963 1.96755C22.9871 1.68212 22.8229 1.42174 22.6135 1.2016C22.404 0.98145 22.1535 0.805973 21.8764 0.685503C21.5994 0.565033 21.3015 0.50197 21.0001 0.5V0.5ZM6.22702 10.8945C5.92234 10.8945 5.62455 10.8027 5.37123 10.6306C5.1179 10.4586 4.92039 10.2141 4.8038 9.92809C4.6872 9.64204 4.65673 9.32731 4.71617 9.02365C4.77561 8.71998 4.92233 8.44104 5.13777 8.22211C5.35321 8.00318 5.6277 7.85408 5.92652 7.79368C6.22534 7.73328 6.53506 7.76429 6.81654 7.88278C7.09802 8.00126 7.33862 8.20192 7.50789 8.45935C7.67716 8.71678 7.76749 9.01945 7.76749 9.32906C7.76749 9.74424 7.60516 10.1424 7.31627 10.436C7.02738 10.7295 6.63558 10.8945 6.22702 10.8945ZM11.7111 10.8945C11.4064 10.8945 11.1086 10.8027 10.8553 10.6306C10.602 10.4586 10.4045 10.2141 10.2879 9.92809C10.1713 9.64204 10.1408 9.32731 10.2002 9.02365C10.2597 8.71998 10.4064 8.44104 10.6218 8.22211C10.8373 8.00318 11.1118 7.85408 11.4106 7.79368C11.7094 7.73328 12.0191 7.76429 12.3006 7.88278C12.5821 8.00126 12.8227 8.20192 12.9919 8.45935C13.1612 8.71678 13.2515 9.01945 13.2515 9.32906C13.2515 9.74424 13.0892 10.1424 12.8003 10.436C12.5114 10.7295 12.1196 10.8945 11.7111 10.8945V10.8945ZM17.2106 10.8945C16.9059 10.8945 16.608 10.8027 16.3547 10.6306C16.1013 10.4586 15.9039 10.2141 15.7873 9.92809C15.6707 9.64204 15.6403 9.32731 15.6997 9.02365C15.7591 8.71998 15.9059 8.44104 16.1213 8.22211C16.3367 8.00318 16.6112 7.85408 16.9101 7.79368C17.2089 7.73328 17.5186 7.76429 17.8001 7.88278C18.0816 8.00126 18.3222 8.20192 18.4914 8.45935C18.6607 8.71678 18.751 9.01945 18.751 9.32906C18.751 9.74424 18.5887 10.1424 18.2998 10.436C18.0109 10.7295 17.6191 10.8945 17.2106 10.8945V10.8945Z" fill="white"/>
</svg>
