<svg width="30" height="27" viewBox="0 0 30 27" fill="none" xmlns="http://www.w3.org/2000/svg">
<path d="M29.2998 10.4954L14.8715 0.32807C13.8622 -0.387408 13.0399 0.102198 13.0399 1.45784V7.10635C-0.22951 8.65027 -0.491134 20.6251 0.219062 26.6125C0.249425 26.7239 0.315202 26.8221 0.406366 26.8921C0.497531 26.9621 0.609076 27 0.723712 27C0.838347 27 0.949664 26.9621 1.04083 26.8921C1.13199 26.8221 1.198 26.7239 1.22836 26.6125C2.94778 19.8719 9.86275 17.6878 13.0399 17.01V22.2066C13.0399 23.5622 13.8622 24.0894 14.8715 23.374L29.2998 13.169C29.5157 13.0204 29.6923 12.8209 29.8143 12.588C29.9363 12.355 30 12.0956 30 11.8322C30 11.5688 29.9363 11.3094 29.8143 11.0765C29.6923 10.8435 29.5157 10.6441 29.2998 10.4954V10.4954Z" fill="white"/>
</svg>
