<svg width="56" height="50" viewBox="0 0 56 50" fill="none" xmlns="http://www.w3.org/2000/svg">
<path fill-rule="evenodd" clip-rule="evenodd" d="M6.41746 2.09101L0.254469 13.7149C0.0901556 13.939 0 14.211 0 14.4924V22.383C0 24.1269 0.692767 25.7994 1.92591 27.0325C2.84435 27.951 4.00651 28.5697 5.26039 28.8256V43.4245C5.26039 43.7733 5.39894 44.1078 5.64557 44.3544C5.8922 44.6011 6.2267 44.7396 6.57548 44.7396C6.92427 44.7396 7.25877 44.6011 7.5054 44.3544C7.75203 44.1078 7.89058 43.7733 7.89058 43.4245V28.8256C9.14445 28.5697 10.3066 27.951 11.2251 27.0325C11.4464 26.8112 11.6503 26.5758 11.8359 26.3283C12.0215 26.5758 12.2254 26.8112 12.4467 27.0325C13.6798 28.2657 15.3523 28.9585 17.0963 28.9585C18.8402 28.9585 20.5127 28.2657 21.7458 27.0325C21.9671 26.8112 22.171 26.5758 22.3566 26.3283C22.5423 26.5758 22.7462 26.8112 22.9675 27.0325C24.2006 28.2657 25.8731 28.9585 27.617 28.9585C29.361 28.9585 31.0335 28.2657 32.2666 27.0325C32.4879 26.8112 32.6918 26.5758 32.8774 26.3283C33.063 26.5758 33.2669 26.8112 33.4882 27.0325C34.7214 28.2657 36.3939 28.9585 38.1378 28.9585C39.8817 28.9585 41.5542 28.2657 42.7874 27.0325C43.0087 26.8112 43.2126 26.5758 43.3982 26.3283C43.5838 26.5758 43.7877 26.8112 44.009 27.0325C44.9274 27.951 46.0896 28.5697 47.3435 28.8256V46.0547C47.3435 46.4035 47.2049 46.738 46.9583 46.9846C46.7117 47.2313 46.3772 47.3698 46.0284 47.3698H44.7133V39.4792C44.7133 37.3865 43.882 35.3795 42.4022 33.8997C40.9224 32.42 38.9154 31.5886 36.8227 31.5886C34.73 31.5886 32.723 32.42 31.2432 33.8997C29.7634 35.3795 28.9321 37.3865 28.9321 39.4792V47.3698H6.57548C6.2267 47.3698 5.8922 47.5084 5.64557 47.755C5.39894 48.0016 5.26039 48.3361 5.26039 48.6849C5.26039 49.0337 5.39894 49.3682 5.64557 49.6148C5.8922 49.8614 6.2267 50 6.57548 50H30.2472H43.3982H46.0284C47.0747 50 48.0782 49.5843 48.8181 48.8444C49.558 48.1046 49.9737 47.1011 49.9737 46.0547V28.8256C51.2275 28.5697 52.3897 27.951 53.3081 27.0325C54.5413 25.7994 55.2341 24.1269 55.2341 22.383V14.7507C55.2462 14.6786 55.2524 14.6054 55.2524 14.5319C55.2524 14.3327 55.2072 14.1365 55.1206 13.958C55.096 13.9027 55.0676 13.8491 55.0355 13.7975L48.8426 2.11734C48.5061 1.48539 48.004 0.956918 47.3901 0.588563C46.7762 0.220208 46.0736 0.0258546 45.3576 0.026332H39.3321C39.2892 0.0242053 39.246 0.0241788 39.2028 0.0262945H31.47L31.4495 0.0263518H23.8372L23.8167 0.0262945H16.309C16.2221 0.00864143 16.1333 -0.000227318 16.044 4.4267e-06H9.90245C9.1865 -0.000472971 8.48392 0.193881 7.86999 0.562235C7.25607 0.93059 6.75395 1.45906 6.41746 2.09101ZM42.0831 47.3698V39.4792C42.0831 38.0841 41.5289 36.7461 40.5424 35.7596C39.5558 34.7731 38.2178 34.2188 36.8227 34.2188C35.4276 34.2188 34.0896 34.7731 33.103 35.7596C32.1165 36.7461 31.5623 38.0841 31.5623 39.4792V47.3698H42.0831ZM44.7133 15.8075H52.6039V22.383C52.6039 23.4293 52.1882 24.4328 51.4483 25.1727C50.7084 25.9126 49.7049 26.3283 48.6586 26.3283C47.6122 26.3283 46.6087 25.9126 45.8688 25.1727C45.13 24.4338 44.7144 23.4321 44.7133 22.3873V22.383L44.7133 15.8075ZM40.0857 8.41945L38.2473 2.65649H32.9955L33.6129 8.75341L34.0818 13.1773H41.5963L40.0857 8.41945ZM46.4755 3.35353L51.7358 13.1773L44.4114 13.1773L41.0657 2.65652H45.305C45.5452 2.65477 45.7812 2.7188 45.9875 2.84167C46.1939 2.96454 46.3626 3.14156 46.4755 3.35353ZM30.2816 2.65654H25.0052L23.8794 13.1773H31.4073L30.2816 2.65654ZM31.5623 15.8075H23.6717V22.383C23.6717 23.4293 24.0874 24.4328 24.8273 25.1727C25.5672 25.9126 26.5707 26.3283 27.617 26.3283C28.6634 26.3283 29.6669 25.9126 30.4068 25.1727C31.1467 24.4328 31.5623 23.4293 31.5623 22.383V15.8075ZM13.7007 13.1773L16.1486 5.39193L17.0308 2.65649H22.2912L21.1734 13.1773H13.7007ZM11.0189 12.726L14.216 2.65649H9.87615C9.63601 2.65474 9.39998 2.71877 9.19366 2.84164C8.98733 2.96451 8.81857 3.14153 8.70571 3.3535L3.49794 13.1773H10.8754L11.0189 12.726ZM42.0831 15.8075H34.1925V22.383C34.1925 23.4293 34.6082 24.4328 35.3481 25.1727C36.0879 25.9126 37.0914 26.3283 38.1378 26.3283C39.1842 26.3283 40.1877 25.9126 40.9275 25.1727C41.6674 24.4328 42.0831 23.4293 42.0831 22.383V15.8075ZM21.0415 15.8075H13.151V22.383C13.151 23.4293 13.5666 24.4328 14.3065 25.1727C15.0464 25.9126 16.0499 26.3283 17.0963 26.3283C18.1426 26.3283 19.1461 25.9126 19.886 25.1727C20.6259 24.4328 21.0415 23.4293 21.0415 22.383V15.8075ZM10.5208 15.8075V22.383C10.5208 23.4293 10.1051 24.4328 9.36523 25.1727C8.62534 25.9126 7.62184 26.3283 6.57548 26.3283C5.52913 26.3283 4.52562 25.9126 3.78574 25.1727C3.04585 24.4328 2.63019 23.4293 2.63019 22.383V15.8075H10.5208ZM14.466 44.7396C14.2494 44.7385 14.0364 44.6839 13.846 44.5806C13.6556 44.4774 13.4936 44.3287 13.3744 44.1478L10.7443 40.2025C10.5732 39.9131 10.5194 39.5692 10.594 39.2415C10.6686 38.9137 10.8659 38.6269 11.1453 38.44C11.4248 38.2532 11.7652 38.1804 12.0966 38.2367C12.428 38.293 12.7253 38.4741 12.9273 38.7427L15.5575 42.688C15.6538 42.8321 15.7207 42.9938 15.7543 43.1638C15.7879 43.3338 15.7876 43.5087 15.7534 43.6786C15.7192 43.8484 15.6517 44.0099 15.5549 44.1536C15.4581 44.2973 15.3338 44.4205 15.1893 44.516C14.9753 44.6598 14.7238 44.7376 14.466 44.7396ZM19.1272 44.592C19.3124 44.6881 19.5178 44.7387 19.7264 44.7396C20.0005 44.7379 20.2672 44.6505 20.4892 44.4898C20.7706 44.2866 20.9603 43.9805 21.017 43.6381C21.0737 43.2957 20.9927 42.9447 20.7917 42.6618L14.2162 33.4561C14.015 33.1726 13.7098 32.9802 13.3673 32.9211C13.0248 32.8619 12.6727 32.9408 12.3882 33.1405C12.247 33.2411 12.1271 33.3687 12.0354 33.5159C11.9437 33.6631 11.882 33.827 11.8539 33.9981C11.8258 34.1692 11.8318 34.3442 11.8716 34.513C11.9114 34.6818 11.9841 34.8411 12.0857 34.9816L18.6612 44.1873C18.7822 44.3573 18.9419 44.496 19.1272 44.592Z" fill="white"/>
</svg>
