<svg width="82" height="62" viewBox="0 0 82 62" fill="none" xmlns="http://www.w3.org/2000/svg">
<path d="M32.0856 48.982H15.7956C12.2574 48.8121 8.92926 47.2522 6.535 44.6416C4.14074 42.031 2.8739 38.5808 3.00992 35.0411C2.92379 32.0306 3.83141 29.0755 5.59244 26.6324C7.35347 24.1892 9.87003 22.3939 12.7533 21.5237C12.6886 16.7693 14.4776 12.1765 17.7413 8.7187C21.0051 5.26087 25.487 3.20977 30.2372 3C32.9401 3.02272 35.5984 3.69179 37.9901 4.95128C40.3818 6.21078 42.4376 8.02418 43.9856 10.2401C44.8403 8.97846 45.9867 7.9416 47.3276 7.21754C48.6684 6.49348 50.1641 6.10353 51.6878 6.08083C54.4019 6.20092 56.9581 7.39028 58.7981 9.38906C60.6381 11.3878 61.6124 14.0337 61.508 16.7484C61.508 17.2876 61.508 17.7882 61.508 18.2503C62.3461 18.0935 63.1972 18.0161 64.0499 18.0192C68.1354 18.0192 72.0535 19.6422 74.9424 22.5311C77.8313 25.4199 79.4542 29.3381 79.4542 33.4236C79.4542 37.5091 77.8313 41.4273 74.9424 44.3161C72.0535 47.205 68.1354 48.828 64.0499 48.828H60.5452" stroke="#717171" stroke-width="5" stroke-linecap="round" stroke-linejoin="round"/>
<path d="M46.1035 59.1489V28.1862" stroke="#717171" stroke-width="5" stroke-linecap="round" stroke-linejoin="round"/>
<path d="M35.1279 37.1592L46.1035 26.1836L57.0791 37.1592" stroke="#717171" stroke-width="5" stroke-linecap="round" stroke-linejoin="round"/>
</svg>
