<svg width="34" height="34" viewBox="0 0 34 34" fill="none" xmlns="http://www.w3.org/2000/svg">
<path d="M16.8328 9.00095C18.6139 8.97892 20.3728 9.39842 21.9523 10.2219C23.006 10.7821 23.9848 11.473 24.8655 12.2783C25.8663 13.2146 26.8037 14.2164 27.6715 15.2772C27.9179 15.5664 28.1856 15.8448 28.4427 16.1233C28.5451 16.2341 28.6019 16.3794 28.6019 16.5303C28.6019 16.6811 28.5451 16.8265 28.4427 16.9373C27.7465 17.7298 27.0504 18.5331 26.3006 19.3149C25.1392 20.6417 23.7723 21.7735 22.2522 22.6672C20.7467 23.5254 19.0571 24.0093 17.3256 24.0783C15.5941 24.1472 13.8713 23.7992 12.3024 23.0635C10.9378 22.4215 9.68056 21.5725 8.57521 20.5466C7.60727 19.6429 6.69184 18.6846 5.83339 17.6763L5.16937 16.9694C5.06075 16.8574 5 16.7077 5 16.5517C5 16.3958 5.06075 16.2459 5.16937 16.134L6.7759 14.3561C7.91089 13.0511 9.21055 11.8991 10.6423 10.9288C11.9891 10.0431 13.5009 9.43831 15.087 9.15091C15.6628 9.0453 16.2474 8.99508 16.8328 9.00095ZM16.9613 11.6357C15.9916 11.6357 15.0436 11.9231 14.2372 12.4616C13.4308 13.0002 12.802 13.7656 12.4305 14.6613C12.0589 15.557 11.9611 16.5428 12.1495 17.494C12.3379 18.4453 12.804 19.3193 13.489 20.0057C14.1739 20.6922 15.047 21.1602 15.9978 21.3507C16.9486 21.5412 17.9346 21.4455 18.8311 21.0759C19.7276 20.7063 20.4944 20.0792 21.0347 19.274C21.575 18.4687 21.8645 17.5214 21.8666 16.5517C21.8694 15.9062 21.7446 15.2666 21.4992 14.6696C21.2538 14.0726 20.8928 13.53 20.4368 13.073C19.9809 12.6161 19.4391 12.2539 18.8426 12.0072C18.2462 11.7605 17.6068 11.6343 16.9613 11.6357Z" fill="#717171"/>
<path d="M13.5662 16.5837C13.5673 16.164 13.6397 15.7475 13.7804 15.352C13.8339 15.2235 13.8768 15.2021 14.0053 15.2556L16.5222 16.3267H16.5864C16.5864 16.3267 16.715 16.3267 16.7364 16.3267C16.7473 16.3013 16.7529 16.2739 16.7529 16.2463C16.7529 16.2187 16.7473 16.1914 16.7364 16.166C16.6079 15.9197 16.4686 15.6733 16.3294 15.4377L15.3762 13.7348C15.2905 13.5956 15.3012 13.5634 15.4512 13.4884C15.9951 13.2222 16.6009 13.1083 17.2044 13.1588C17.8079 13.2093 18.3864 13.4223 18.8785 13.7752C19.3706 14.1281 19.758 14.6077 19.9994 15.1631C20.2407 15.7185 20.3272 16.3289 20.2495 16.9294C20.1718 17.53 19.9329 18.0983 19.5582 18.574C19.1834 19.0497 18.6868 19.415 18.1211 19.6311C17.5554 19.8471 16.9417 19.9059 16.3453 19.8012C15.7488 19.6965 15.1919 19.4322 14.7336 19.0363C14.3766 18.7334 14.0879 18.3581 13.8866 17.9353C13.6854 17.5125 13.5762 17.0518 13.5662 16.5837Z" fill="#717171"/>
</svg>
